<svg width="51" height="70" viewBox="0 0 51 70" fill="none" xmlns="http://www.w3.org/2000/svg">
<path d="M6.94466 28.2305C6.5775 28.6246 6.13474 28.9406 5.64278 29.1598C5.15083 29.379 4.61976 29.4969 4.08127 29.5064C3.54278 29.5159 3.00788 29.4168 2.5085 29.2151C2.00912 29.0134 1.55549 28.7132 1.17465 28.3323C0.793821 27.9515 0.493595 27.4979 0.291888 26.9985C0.0901797 26.4991 -0.00887695 25.9642 0.000624157 25.4257C0.0101253 24.8872 0.127989 24.3562 0.347188 23.8642C0.566387 23.3723 0.882427 22.9295 1.27646 22.5623L22.6659 1.17289C23.4179 0.42185 24.4372 0 25.5 0C26.5628 0 27.5821 0.42185 28.3341 1.17289L49.7235 22.5623C50.1176 22.9295 50.4336 23.3723 50.6528 23.8642C50.872 24.3562 50.9899 24.8872 50.9994 25.4257C51.0089 25.9642 50.9098 26.4991 50.7081 26.9985C50.5064 27.4979 50.2062 27.9515 49.8253 28.3323C49.4445 28.7132 48.9909 29.0134 48.4915 29.2151C47.9921 29.4168 47.4572 29.5159 46.9187 29.5064C46.3802 29.4969 45.8492 29.379 45.3572 29.1598C44.8653 28.9406 44.4225 28.6246 44.0553 28.2305L29.5105 13.6857V65.5016C29.5105 66.5653 29.088 67.5854 28.3359 68.3375C27.5837 69.0896 26.5637 69.5122 25.5 69.5122C24.4363 69.5122 23.4163 69.0896 22.6641 68.3375C21.912 67.5854 21.4895 66.5653 21.4895 65.5016V13.6857L6.94466 28.2305Z" fill="#87FF0F"/>
</svg>
