<svg width="38" height="38" viewBox="0 0 38 38" fill="none" xmlns="http://www.w3.org/2000/svg">
<path d="M9.45911 16.7725V13.6448C9.45911 13.4597 9.45911 13.3856 9.70075 13.3856C11.7722 13.3856 13.4559 13.2629 14.2919 13.7559C15.1299 14.247 15.165 14.9251 15.1786 15.1278C15.1922 15.3305 15.1864 15.6208 14.7966 16.3282C14.4069 17.0356 12.6628 17.0492 11.4039 17.0492H9.73777C9.53316 17.0492 9.45911 16.9752 9.45911 16.7725ZM15.2 20.0503C15.393 20.2966 15.5308 20.5816 15.604 20.8859C15.6772 21.1902 15.684 21.5067 15.6242 21.8139C15.5643 22.121 15.439 22.4118 15.2569 22.6663C15.0748 22.9208 14.8401 23.1332 14.5686 23.289C14.17 23.4568 13.7423 23.5448 13.3098 23.5482H9.71829C9.53316 23.5482 9.45911 23.5482 9.45911 23.3085V19.6059C9.45911 19.4208 9.45911 19.3468 9.70075 19.3468H12.0879C13.569 19.3468 14.4946 19.2182 15.2 20.0503Z" fill="#FEFAEF"/>
<path d="M28.235 18.3355C28.1357 18.1014 27.985 17.8926 27.7941 17.7246C27.6031 17.5566 27.3769 17.4337 27.132 17.365C26.6426 17.2313 26.1303 17.203 25.6291 17.2819C25.1279 17.3609 24.6492 17.5453 24.2245 17.823C23.8013 18.2506 23.5279 18.8036 23.445 19.3995C23.445 19.608 23.445 19.647 23.6925 19.647H28.311C28.539 19.647 28.539 19.647 28.5195 19.3605C28.4977 19.0024 28.402 18.653 28.235 18.3355ZM28.235 18.3355C28.1357 18.1014 27.983 17.8926 27.7921 17.7246C27.6012 17.5566 27.3769 17.4337 27.132 17.365C26.6426 17.2313 26.1303 17.203 25.6291 17.2819C25.1279 17.3609 24.6492 17.5453 24.2245 17.823C23.8013 18.2506 23.5259 18.8036 23.4431 19.3995C23.4431 19.608 23.4431 19.647 23.6906 19.647H28.311C28.539 19.647 28.539 19.647 28.5195 19.3605C28.4977 19.0024 28.3981 18.653 28.2311 18.3355M30.4 0H7.6C5.58435 0 3.65126 0.800712 2.22599 2.22599C0.800712 3.65126 0 5.58435 0 7.6V30.4C0 32.4156 0.800712 34.3487 2.22599 35.774C3.65126 37.1993 5.58435 38 7.6 38H30.4C32.4156 38 34.3487 37.1993 35.774 35.774C37.1993 34.3487 38 32.4156 38 30.4V7.6C38 5.58435 37.1993 3.65126 35.774 2.22599C34.3487 0.800712 32.4156 0 30.4 0ZM22.952 12.1015C22.952 11.9515 22.952 11.893 23.1235 11.893H29.2795V13.491C29.2795 13.491 29.2853 13.604 29.184 13.604H23.219C22.952 13.604 22.952 13.604 22.952 13.339V12.1015ZM17.252 26.068C14.9135 27.3405 10.983 26.828 6.32749 26.828V11.0765H13.756C15.656 11.0765 17.9165 11.552 18.5245 13.565C18.8402 14.4442 18.821 15.409 18.4705 16.2749C18.1201 17.1409 17.4629 17.8474 16.6245 18.2595C17.3973 18.5455 18.0719 19.0468 18.5687 19.7043C19.0654 20.3617 19.3634 21.1477 19.4273 21.9692C19.4913 22.7907 19.3186 23.6133 18.9296 24.3397C18.5406 25.0661 17.9517 25.6659 17.2325 26.068H17.252ZM31.4075 21.584H23.8075C23.599 21.584 23.408 21.697 23.445 21.964C23.673 23.0845 24.1855 24.2635 25.347 24.435C25.9602 24.6175 26.617 24.5894 27.2124 24.3553C27.8079 24.1211 28.3078 23.6943 28.6325 23.143C28.6325 23.143 28.728 23.028 28.7845 23.028H31.2555C31.2555 23.028 31.4075 23.028 31.3685 23.1605C31.1079 23.8984 30.7223 24.5859 30.2285 25.193C29.5681 25.8239 28.7712 26.294 27.8997 26.567C27.0281 26.84 26.1054 26.9084 25.2032 26.7671C24.3009 26.6257 23.4433 26.2783 22.697 25.7519C21.9508 25.2254 21.3358 24.5341 20.9 23.7315C20.6319 23.1963 20.4648 22.6163 20.407 22.0205C20.0681 20.5231 20.3271 18.9525 21.129 17.6433C21.9308 16.334 23.2121 15.3896 24.7 15.011C29.0125 14.0795 31.7485 17.0435 31.7485 21.2235C31.7549 21.2723 31.75 21.322 31.7341 21.3687C31.7183 21.4153 31.6919 21.4577 31.6571 21.4925C31.6222 21.5274 31.5798 21.5537 31.5332 21.5696C31.4865 21.5855 31.4369 21.5904 31.388 21.584H31.4075ZM27.1515 17.365C26.6625 17.2294 26.1499 17.2015 25.649 17.2832C25.1482 17.3611 24.7 17.4566 24.244 17.823C23.788 18.1874 23.5464 18.8032 23.4645 19.3995C23.4645 19.608 23.4645 19.647 23.712 19.647H28.311C28.539 19.647 28.539 19.647 28.5195 19.3605C28.4977 19.0024 28.402 18.653 28.235 18.3355C28.1357 18.1014 27.985 17.8926 27.7941 17.7246C27.6031 17.5566 27.3769 17.4337 27.132 17.365H27.1515Z" fill="#FEFAEF"/>
</svg>
