<svg width="127" height="127" viewBox="0 0 127 127" fill="none" xmlns="http://www.w3.org/2000/svg">
<path d="M7.93579 7.93652V119.036H119.035V7.93652H7.93579ZM68.3978 94.5824C68.3978 105.395 62.0493 110.331 52.8002 110.331C44.4439 110.331 39.6071 106.018 37.1272 100.784L45.6343 95.6497C47.273 98.5502 48.761 101.006 52.3558 101.006C55.7761 101.006 57.9584 99.6652 57.9584 94.4356V58.9472H68.3978V94.5824ZM93.0937 110.331C83.3963 110.331 77.1231 105.72 74.0719 99.6652L82.5789 94.757C84.8128 98.4034 87.7371 101.106 92.8715 101.106C97.1846 101.106 99.966 98.947 99.966 95.9473C99.966 92.3763 97.1369 91.1105 92.3517 89.0036L89.7488 87.8886C82.2099 84.6905 77.2263 80.6473 77.2263 72.1402C77.2263 64.3037 83.2019 58.352 92.5025 58.352C99.1486 58.352 103.91 60.6573 107.334 66.7083L99.2002 71.918C97.4147 68.72 95.4784 67.4542 92.4787 67.4542C89.4314 67.4542 87.4951 69.3905 87.4951 71.918C87.4951 75.0447 89.4314 76.3065 93.919 78.2666L96.5219 79.3816C105.402 83.1748 110.386 87.0713 110.386 95.7965C110.386 105.173 102.993 110.327 93.0977 110.327L93.0937 110.331Z" fill="#FF62B3"/>
</svg>
