<svg width="39" height="39" viewBox="0 0 39 39" fill="none" xmlns="http://www.w3.org/2000/svg">
<path fill-rule="evenodd" clip-rule="evenodd" d="M31.9697 0C33.6655 0 35.2918 0.673645 36.4909 1.87274C37.69 3.07184 38.3636 4.69816 38.3636 6.39394V31.9697C38.3636 33.6655 37.69 35.2918 36.4909 36.4909C35.2918 37.69 33.6655 38.3636 31.9697 38.3636H6.39394C4.69816 38.3636 3.07184 37.69 1.87274 36.4909C0.673645 35.2918 0 33.6655 0 31.9697V6.39394C0 4.69816 0.673645 3.07184 1.87274 1.87274C3.07184 0.673645 4.69816 0 6.39394 0H31.9697ZM10.6566 14.9192C10.0913 14.9192 9.5492 15.1437 9.1495 15.5434C8.7498 15.9431 8.52525 16.4852 8.52525 17.0505V27.7071C8.52525 28.2723 8.7498 28.8144 9.1495 29.2141C9.5492 29.6138 10.0913 29.8384 10.6566 29.8384C11.2218 29.8384 11.7639 29.6138 12.1636 29.2141C12.5633 28.8144 12.7879 28.2723 12.7879 27.7071V17.0505C12.7879 16.4852 12.5633 15.9431 12.1636 15.5434C11.7639 15.1437 11.2218 14.9192 10.6566 14.9192ZM17.0505 12.7879C16.4852 12.7879 15.9431 13.0124 15.5434 13.4121C15.1437 13.8118 14.9192 14.3539 14.9192 14.9192V27.7071C14.9192 28.2723 15.1437 28.8144 15.5434 29.2141C15.9431 29.6138 16.4852 29.8384 17.0505 29.8384C17.6158 29.8384 18.1579 29.6138 18.5576 29.2141C18.9573 28.8144 19.1818 28.2723 19.1818 27.7071V19.9065C19.8319 19.1733 20.9295 18.3122 22.1507 17.7901C22.8605 17.4874 23.9283 17.3638 24.6699 17.5983C24.916 17.6607 25.1351 17.8013 25.2944 17.9989C25.4053 18.1481 25.5758 18.4806 25.5758 19.1818V27.7071C25.5758 28.2723 25.8003 28.8144 26.2 29.2141C26.5997 29.6138 27.1418 29.8384 27.7071 29.8384C28.2723 29.8384 28.8144 29.6138 29.2141 29.2141C29.6138 28.8144 29.8384 28.2723 29.8384 27.7071V19.1818C29.8384 17.7538 29.4761 16.4836 28.7216 15.4648C28.0273 14.541 27.0557 13.8636 25.9487 13.5317C24.0263 12.9285 21.8971 13.2632 20.4755 13.8727C20.0204 14.0685 19.5771 14.2905 19.1477 14.5377C19.0584 14.0466 18.7995 13.6025 18.4162 13.2827C18.033 12.9629 17.5496 12.7878 17.0505 12.7879ZM10.6566 8.52525C10.0913 8.52525 9.5492 8.7498 9.1495 9.1495C8.7498 9.5492 8.52525 10.0913 8.52525 10.6566C8.52525 11.2218 8.7498 11.7639 9.1495 12.1636C9.5492 12.5633 10.0913 12.7879 10.6566 12.7879C11.2218 12.7879 11.7639 12.5633 12.1636 12.1636C12.5633 11.7639 12.7879 11.2218 12.7879 10.6566C12.7879 10.0913 12.5633 9.5492 12.1636 9.1495C11.7639 8.7498 11.2218 8.52525 10.6566 8.52525Z" fill="#FEFAEF"/>
</svg>
