<svg width="77" height="19" viewBox="0 0 77 19" fill="none" xmlns="http://www.w3.org/2000/svg">
<path d="M0 1.61571C0.362882 3.24738 0.87074 4.85877 1.51894 6.42016C4.02502 13.3578 11.6676 20.051 19.9619 17.7298C27.88 15.7615 33.7315 10.1522 38.8268 4.55963C39.1511 4.19512 39.477 3.82215 39.8046 3.44058L37.428 3.30283C41.7139 9.39815 47.5556 15.0843 55.3598 16.6325C63.5381 18.2857 70.3562 12.0237 73.7639 5.78024C74.5872 4.35217 75.3339 2.85334 76.0274 1.28139C75.156 2.76211 74.2481 4.15839 73.2864 5.46893C69.1834 11.3265 62.5745 16.15 55.8224 14.3252C49.2114 12.6693 43.8488 7.30251 39.91 1.62206L38.8076 -4.77377e-06L37.5334 1.4843C37.2149 1.85288 36.8989 2.21321 36.5855 2.56545C31.6757 7.98664 26.1963 13.3544 19.383 15.4084C12.4829 17.7678 5.37468 12.7699 2.03291 6.1737C1.2366 4.71977 0.555091 3.19212 0 1.61571Z" fill="white"/>
</svg>
