<svg width="39" height="39" viewBox="0 0 39 39" fill="none" xmlns="http://www.w3.org/2000/svg">
<path d="M19.0589 38.1177C29.5851 38.1177 38.1177 29.5851 38.1177 19.0589C38.1177 8.53265 29.5851 0 19.0589 0C8.53265 0 0 8.53265 0 19.0589C0 26.6938 4.49027 33.2806 10.9741 36.3224L15.3386 15.8036C15.4504 15.316 15.7494 14.892 16.1711 14.6229C16.5928 14.3538 17.1034 14.2614 17.5927 14.3654C18.082 14.4695 18.5108 14.7617 18.7865 15.1791C19.0622 15.5965 19.1628 16.1056 19.0665 16.5965C18.5443 19.0589 18.0869 20.0118 18.1078 21.1553C18.1402 22.9469 18.6281 23.9036 19.1008 24.3991C19.583 24.9042 20.2786 25.1768 21.1877 25.1615C22.1159 25.1424 23.166 24.8165 24.0961 24.2295C25.9048 23.0936 26.6824 21.1458 26.6824 19.0589C26.6811 17.9263 26.4276 16.8083 25.9401 15.786C25.4526 14.7637 24.7435 13.8629 23.8643 13.149C22.985 12.4351 21.9578 11.9261 20.8572 11.659C19.7566 11.3918 18.6103 11.3732 17.5017 11.6045C16.393 11.8359 15.3498 12.3113 14.4479 12.9963C13.546 13.6813 12.808 14.5587 12.2877 15.5646C11.7673 16.5705 11.4776 17.6798 11.4396 18.8117C11.4016 19.9436 11.6163 21.0697 12.0681 22.1083C12.2523 22.5681 12.2502 23.0816 12.0623 23.5399C11.8744 23.9982 11.5155 24.3654 11.0616 24.5636C10.6076 24.7618 10.0943 24.7755 9.63046 24.6018C9.16659 24.4281 8.78857 24.0806 8.57649 23.633C7.81779 21.8928 7.50426 19.9911 7.6642 18.0995C7.82413 16.2078 8.45248 14.3857 9.49257 12.7976C10.5327 11.2095 11.9518 9.90534 13.6219 9.00274C15.2919 8.10014 17.1605 7.62752 19.0589 7.62752C20.9572 7.62752 22.8258 8.10014 24.4959 9.00274C26.1659 9.90534 27.5851 11.2095 28.6251 12.7976C29.6652 14.3857 30.2936 16.2078 30.4535 18.0995C30.6135 19.9911 30.2999 21.8928 29.5412 23.633C28.8399 25.2492 27.5591 26.5566 26.1259 27.4581C24.6869 28.3634 22.9678 28.9428 21.2563 28.9733C19.6954 29.0019 18.0697 28.5692 16.7604 27.4333L14.5991 37.5955C16.0285 37.9386 17.5227 38.1196 19.057 38.1196L19.0589 38.1177Z" fill="#FEFAEF"/>
</svg>
