<svg width="1490" height="350" viewBox="0 0 1490 350" fill="none" xmlns="http://www.w3.org/2000/svg">
<rect width="1490" height="130" fill="#87FF0F"/>
<path fill-rule="evenodd" clip-rule="evenodd" d="M0 318.138L50 328.668C99 339.198 199 360.259 298 344.112C397 328.668 497 276.72 596 239.513C695 203.009 795 182.651 894 192.479C993 203.009 1093 245.129 1192 266.19C1291 287.25 1391 287.25 1440 287.25H1490V130H1440C1391 130 1291 130 1192 130C1093 130 993 130 894 130C795 130 695 130 596 130C497 130 397 130 298 130C199 130 99 130 50 130H0V318.138Z" fill="#87FF0F"/>
</svg>
