<svg width="499" height="143" viewBox="0 0 499 143" fill="none" xmlns="http://www.w3.org/2000/svg">
<path d="M6.406 30.8222H39.5545C45.1132 30.8222 49.8245 31.8729 53.6884 33.9744C57.5523 36.008 60.4333 38.9568 62.3314 42.8207C64.2973 46.6169 65.2802 51.0909 65.2802 56.2428C65.2802 64.1741 62.9754 70.3767 58.3658 74.8508C53.824 79.3248 47.5535 81.5618 39.5545 81.5618H25.5223V102H6.406V30.8222ZM25.5223 40.5837V71.4952H34.4704C38.131 71.4952 40.8086 70.7157 42.5033 69.1565C44.198 67.5296 45.0454 64.7503 45.0454 60.8186V51.3621C45.0454 47.3626 44.198 44.5832 42.5033 43.0241C40.8086 41.3972 38.131 40.5837 34.4704 40.5837H25.5223ZM99.842 103.017C90.6227 103.017 83.5388 100.644 78.5903 95.899C73.6417 91.1539 71.1675 83.6971 71.1675 73.5289C71.1675 63.3606 73.6417 55.9039 78.5903 51.1587C83.5388 46.4135 90.6227 44.0409 99.842 44.0409C109.061 44.0409 116.111 46.4135 120.992 51.1587C125.873 55.9039 128.313 63.3606 128.313 73.5289C128.313 83.6971 125.839 91.1539 120.89 95.899C116.009 100.644 108.993 103.017 99.842 103.017ZM99.842 94.1704C103.164 94.1704 105.672 93.3231 107.366 91.6284C109.129 89.8659 110.01 87.1205 110.01 83.3921V63.869C110.01 59.9373 109.163 57.0902 107.468 55.3277C105.773 53.5652 103.231 52.684 99.842 52.684C96.4525 52.684 93.9444 53.5652 92.3174 55.3277C90.7583 57.0902 89.9787 59.9373 89.9787 63.869V83.3921C89.9787 87.1882 90.7922 89.9337 92.4191 91.6284C94.046 93.3231 96.5203 94.1704 99.842 94.1704ZM191.467 101.39V102H169.707L164.725 84.8156H154.455V102H137.271V45.0578H166.555C173.809 45.0578 179.571 46.7864 183.841 50.2436C188.18 53.7008 190.349 58.5138 190.349 64.6825C190.349 70.9868 188.214 75.9354 183.943 79.5282C182.316 80.8161 180.486 81.9007 178.452 82.782L191.467 101.39ZM161.776 53.5991H154.455V76.2743H161.776C165.437 76.2743 168.047 75.6981 169.606 74.5457C171.233 73.3933 172.046 71.1902 172.046 67.9363V62.0388C172.046 58.8527 171.233 56.6496 169.606 55.4294C167.979 54.2092 165.369 53.5991 161.776 53.5991ZM195.852 45.0578H245.066V53.5991H229.102V102H211.918V53.5991H195.852V45.0578ZM252.359 45.0578H290.693V53.4974H269.543V70.0717C271.916 69.1226 274.322 68.3431 276.762 67.733C282.05 66.3772 288.015 65.5637 294.659 65.2926V73.8339C287.948 74.1051 281.982 74.9863 276.762 76.4777C274.322 77.1556 271.916 78.0029 269.543 79.0197V102H252.359V45.0578ZM328.231 103.017C319.011 103.017 311.927 100.644 306.979 95.899C302.03 91.1539 299.556 83.6971 299.556 73.5289C299.556 63.3606 302.03 55.9039 306.979 51.1587C311.927 46.4135 319.011 44.0409 328.231 44.0409C337.45 44.0409 344.5 46.4135 349.38 51.1587C354.261 55.9039 356.702 63.3606 356.702 73.5289C356.702 83.6971 354.227 91.1539 349.279 95.899C344.398 100.644 337.382 103.017 328.231 103.017ZM328.231 94.1704C331.552 94.1704 334.06 93.3231 335.755 91.6284C337.518 89.8659 338.399 87.1205 338.399 83.3921V63.869C338.399 59.9373 337.551 57.0902 335.857 55.3277C334.162 53.5652 331.62 52.684 328.231 52.684C324.841 52.684 322.333 53.5652 320.706 55.3277C319.147 57.0902 318.367 59.9373 318.367 63.869V83.3921C318.367 87.1882 319.181 89.9337 320.808 91.6284C322.435 93.3231 324.909 94.1704 328.231 94.1704ZM365.659 45.0578H382.844V93.4587H402.977V102H365.659V45.0578ZM411.933 45.0578H429.117V102H411.933V45.0578ZM466.753 103.017C457.534 103.017 450.45 100.644 445.502 95.899C440.553 91.1539 438.079 83.6971 438.079 73.5289C438.079 63.3606 440.553 55.9039 445.502 51.1587C450.45 46.4135 457.534 44.0409 466.753 44.0409C475.972 44.0409 483.022 46.4135 487.903 51.1587C492.784 55.9039 495.224 63.3606 495.224 73.5289C495.224 83.6971 492.75 91.1539 487.801 95.899C482.921 100.644 475.905 103.017 466.753 103.017ZM466.753 94.1704C470.075 94.1704 472.583 93.3231 474.278 91.6284C476.04 89.8659 476.921 87.1205 476.921 83.3921V63.869C476.921 59.9373 476.074 57.0902 474.379 55.3277C472.685 53.5652 470.143 52.684 466.753 52.684C463.364 52.684 460.856 53.5652 459.229 55.3277C457.67 57.0902 456.89 59.9373 456.89 63.869V83.3921C456.89 87.1882 457.703 89.9337 459.33 91.6284C460.957 93.3231 463.432 94.1704 466.753 94.1704Z" fill="white"/>
<path d="M328.5 52L329.762 70.9155L339 73.5L329.762 76.0845L328.5 95L327.238 76.0845L318 73.5L327.238 70.9155L328.5 52Z" fill="white"/>
<path d="M467.5 52L468.762 70.9155L478 73.5L468.762 76.0845L467.5 95L466.238 76.0845L457 73.5L466.238 70.9155L467.5 52Z" fill="white"/>
<path d="M360 126.401C360.363 128.033 360.871 129.645 361.519 131.206C364.025 138.144 371.668 144.837 379.962 142.516C387.88 140.547 393.732 134.938 398.827 129.345C399.151 128.981 399.477 128.608 399.805 128.226L397.428 128.089C401.714 134.184 407.556 139.87 415.36 141.418C423.538 143.071 430.356 136.809 433.764 130.566C434.587 129.138 435.334 127.639 436.027 126.067C435.156 127.548 434.248 128.944 433.286 130.255C429.183 136.112 422.574 140.936 415.822 139.111C409.211 137.455 403.849 132.088 399.91 126.408L398.808 124.786L397.533 126.27C397.215 126.639 396.899 126.999 396.585 127.351C391.676 132.772 386.196 138.14 379.383 140.194C372.483 142.554 365.375 137.556 362.033 130.959C361.237 129.506 360.555 127.978 360 126.401Z" fill="white"/>
</svg>
