<svg width="134" height="134" viewBox="0 0 134 134" fill="none" xmlns="http://www.w3.org/2000/svg">
<path d="M67.3284 8.35624C44.2731 8.35624 22.6379 21.8887 12.6974 43.4404H40.6811V46.5311C32.0772 45.5287 32.829 49.956 34.082 54.6339L52.4594 100.41L65.9083 68.9181L59.7268 54.1327C57.4714 50.2066 57.4714 45.7793 48.1992 46.197L48.3662 43.3568H89.3812V46.6146C84.6198 46.8652 78.7725 45.4452 81.8632 55.2186L98.4864 98.5725L107.592 73.2619C110.599 62.6531 107.759 52.462 104.25 42.438C102.329 35.7553 103.164 30.1585 112.019 27.9031C98.5699 14.2871 82.7821 8.27271 67.4954 8.27271L67.3284 8.35624ZM123.129 48.3688L96.5651 117.368C103.916 111.019 111.434 108.764 120.623 91.2216C126.721 76.6867 126.136 63.1543 123.129 48.3688ZM9.94078 49.4548C7.35124 69.837 7.60184 75.7679 14.0339 92.3911C22.3873 108.346 28.9029 111.687 38.0916 117.952L9.94078 49.5383V49.4548ZM68.4143 75.2667L48.7004 122.547C62.567 126.473 74.9299 125.972 86.207 121.628L68.4143 75.2667Z" fill="#87FF0F"/>
</svg>
